<?xml version="1.0" encoding="UTF-8"?> <svg xmlns="http://www.w3.org/2000/svg" xmlns:xlink="http://www.w3.org/1999/xlink" width="585.991" height="508.968" viewBox="0 0 585.991 508.968"><defs><linearGradient id="linear-gradient" y1="0.5" x2="1" y2="0.5" gradientUnits="objectBoundingBox"><stop offset="0" stop-color="#fff200"></stop><stop offset="1" stop-color="#f7941e"></stop></linearGradient><radialGradient id="radial-gradient" cx="0.391" cy="1.114" r="1.078" gradientTransform="translate(0.317) scale(0.367 1)" gradientUnits="objectBoundingBox"><stop offset="0" stop-color="#231f20"></stop><stop offset="0.216" stop-color="#534f50"></stop><stop offset="1" stop-color="#fff"></stop></radialGradient></defs><g id="graduation" transform="translate(52.767 0.414)"><g id="Groupe_544" data-name="Groupe 544" transform="translate(349.913 338.157)"><path id="Tracé_2048" data-name="Tracé 2048" d="M654.9,649.47" transform="translate(-646.533 -632.734)" fill="none" stroke="#000" stroke-linecap="round" stroke-linejoin="round" stroke-width="1"></path><path id="Tracé_2049" data-name="Tracé 2049" d="M639.047,633.615" transform="translate(-639.047 -625.247)" fill="none" stroke="#000" stroke-linecap="round" stroke-linejoin="round" stroke-width="1"></path><path id="Tracé_2050" data-name="Tracé 2050" d="M654.9,617.761" transform="translate(-646.533 -617.761)" fill="none" stroke="#000" stroke-linecap="round" stroke-linejoin="round" stroke-width="1"></path><path id="Tracé_2051" data-name="Tracé 2051" d="M647.415,617.761a8.368,8.368,0,0,1-8.368,8.368,8.368,8.368,0,0,1,8.368,8.368,8.368,8.368,0,0,1,8.368-8.368A8.368,8.368,0,0,1,647.415,617.761Z" transform="translate(-639.047 -617.761)" fill="none" stroke="#000" stroke-linecap="round" stroke-linejoin="round" stroke-width="1"></path><path id="Tracé_2052" data-name="Tracé 2052" d="M670.756,633.615" transform="translate(-654.02 -625.247)" fill="none" stroke="#000" stroke-linecap="round" stroke-linejoin="round" stroke-width="1"></path></g><path id="Tracé_2053" data-name="Tracé 2053" d="M510.987,180.243l13.906-24.6L541,164.078,555.07,137.2l19.631,9.75,7.6-16.024-5.877-.242,12.161-10.857-.711,16.287-3.906-4.4-8.4,17.72-19.7-9.782L541.78,166.566l-16.16-8.461-13.027,23.045Z" transform="translate(-228.664 -44.482)" fill="none" stroke="#000" stroke-miterlimit="10" stroke-width="1"></path><g id="Groupe_547" data-name="Groupe 547" transform="translate(330.164 395.786)"><path id="Tracé_2054" data-name="Tracé 2054" d="M629.726,773.861c.63-3.806,1.323-7.989,1.79-10.81" transform="translate(-608.896 -717.996)" fill="none" stroke="#000" stroke-linecap="round" stroke-linejoin="round" stroke-width="1"></path><path id="Tracé_2055" data-name="Tracé 2055" d="M641.664,764.408c-.461,2.781-1.155,6.974-1.79,10.809" transform="translate(-613.688 -718.636)" fill="none" stroke="#000" stroke-linecap="round" stroke-linejoin="round" stroke-width="1"></path><path id="Tracé_2056" data-name="Tracé 2056" d="M617.544,789.055l6.393-5.118,5.33.882,4.093,6.855Z" transform="translate(-603.144 -727.858)" fill="none" stroke="#000" stroke-linecap="round" stroke-linejoin="round" stroke-width="1"></path><g id="Groupe_545" data-name="Groupe 545" transform="translate(37.605 15.494)"><path id="Tracé_2057" data-name="Tracé 2057" d="M670.91,707.043l14.105,2.336-.522,1.988a47.292,47.292,0,0,1-5.177,11.773c-4.8,7.654-10.953,11.2-17.807,10.281m3.651-3.724c8.7-1.273,13.483-12.653,15.09-17.311l-9.852-1.632" transform="translate(-661.509 -707.043)" fill="none" stroke="#000" stroke-linecap="round" stroke-linejoin="round" stroke-width="1"></path></g><g id="Groupe_546" data-name="Groupe 546" transform="translate(0 7.743)"><path id="Tracé_2058" data-name="Tracé 2058" d="M603.9,698.377l-9.886-1.637c.02,5.017.913,17.693,9.135,21.462m1.062,4.323c-6.373-1.581-10.778-6.843-12.78-15.3a47.316,47.316,0,0,1-1.106-12.813l.147-2.051,13.841,2.293" transform="translate(-590.26 -692.357)" fill="none" stroke="#000" stroke-linecap="round" stroke-linejoin="round" stroke-width="1"></path></g><path id="Tracé_2059" data-name="Tracé 2059" d="M616.773,688.145c-.976,5.705-3.232,19.642-2.757,24.207.973,9.376,5.949,14.189,12.151,15.216l.639.106.639.106c6.2,1.028,12.462-1.925,16.408-10.486,1.972-4.283,4.491-18.69,5.371-24.245" transform="translate(-601.447 -682.625)" fill="none" stroke="#000" stroke-linecap="round" stroke-linejoin="round" stroke-width="1"></path><path id="Tracé_2060" data-name="Tracé 2060" d="M629.251,796.252l-16.125-2.671a4.294,4.294,0,0,0-4.938,3.535l24.6,4.074A4.294,4.294,0,0,0,629.251,796.252Z" transform="translate(-598.726 -732.385)" fill="none" stroke="#000" stroke-linecap="round" stroke-linejoin="round" stroke-width="1"></path><rect id="Rectangle_70" data-name="Rectangle 70" width="14.887" height="29.154" transform="matrix(0.163, -0.987, 0.987, 0.163, 4.948, 79.073)" fill="none" stroke="#000" stroke-linecap="round" stroke-linejoin="round" stroke-width="1"></rect><rect id="Rectangle_71" data-name="Rectangle 71" width="4.432" height="34.069" transform="translate(1.799 83.045) rotate(-80.595)" fill="none" stroke="#000" stroke-linecap="round" stroke-linejoin="round" stroke-width="1"></rect><path id="Tracé_2061" data-name="Tracé 2061" d="M653.521,685.952a2.494,2.494,0,0,1-2.868,2.053l-32.385-5.364a2.493,2.493,0,0,1-2.052-2.868h0a2.493,2.493,0,0,1,2.867-2.053l32.385,5.364a2.494,2.494,0,0,1,2.052,2.868Z" transform="translate(-602.501 -677.687)" fill="none" stroke="#000" stroke-linecap="round" stroke-linejoin="round" stroke-width="1"></path></g><g id="Groupe_548" data-name="Groupe 548" transform="translate(-52.267 63.629)"><path id="Tracé_2062" data-name="Tracé 2062" d="M55.171,143.19,26.733,93.542l87.055-49.868ZM40.762,97.353,55.3,122.725,85.253,71.867Z" transform="translate(-26.733 -43.674)" fill="none" stroke="#000" stroke-linecap="round" stroke-linejoin="round" stroke-width="1"></path><line id="Ligne_9" data-name="Ligne 9" x1="2.525" y1="4.232" transform="translate(7.972 45.778)" fill="none" stroke="#000" stroke-linecap="round" stroke-linejoin="round" stroke-width="1"></line><line id="Ligne_10" data-name="Ligne 10" x1="2.525" y1="4.232" transform="translate(15.436 41.683)" fill="none" stroke="#000" stroke-linecap="round" stroke-linejoin="round" stroke-width="1"></line><line id="Ligne_11" data-name="Ligne 11" x1="2.525" y1="4.232" transform="translate(22.612 37.594)" fill="none" stroke="#000" stroke-linecap="round" stroke-linejoin="round" stroke-width="1"></line><line id="Ligne_12" data-name="Ligne 12" x1="2.525" y1="4.232" transform="translate(30.076 33.499)" fill="none" stroke="#000" stroke-linecap="round" stroke-linejoin="round" stroke-width="1"></line><line id="Ligne_13" data-name="Ligne 13" x1="2.525" y1="4.232" transform="translate(37.648 28.669)" fill="none" stroke="#000" stroke-linecap="round" stroke-linejoin="round" stroke-width="1"></line><line id="Ligne_14" data-name="Ligne 14" x1="2.525" y1="4.232" transform="translate(45.111 24.574)" fill="none" stroke="#000" stroke-linecap="round" stroke-linejoin="round" stroke-width="1"></line><line id="Ligne_15" data-name="Ligne 15" x1="2.525" y1="4.232" transform="translate(52.288 20.485)" fill="none" stroke="#000" stroke-linecap="round" stroke-linejoin="round" stroke-width="1"></line><line id="Ligne_16" data-name="Ligne 16" x1="2.525" y1="4.232" transform="translate(59.751 16.39)" fill="none" stroke="#000" stroke-linecap="round" stroke-linejoin="round" stroke-width="1"></line><line id="Ligne_17" data-name="Ligne 17" x1="2.525" y1="4.232" transform="translate(67.67 11.75)" fill="none" stroke="#000" stroke-linecap="round" stroke-linejoin="round" stroke-width="1"></line></g><g id="Groupe_552" data-name="Groupe 552" transform="translate(21.039 357.48)"><g id="Groupe_550" data-name="Groupe 550"><g id="Groupe_549" data-name="Groupe 549" transform="translate(0)"><path id="Tracé_2063" data-name="Tracé 2063" d="M209.248,818.425a4.971,4.971,0,0,1,2.564-4.847l.388-.182c2.115-.99,4.567.245,6.022,1.933" transform="translate(-128.221 -726.296)" fill="none" stroke="#000" stroke-linecap="round" stroke-linejoin="round" stroke-width="1"></path><path id="Tracé_2064" data-name="Tracé 2064" d="M59.4,723.879c.094-1.779.3-5.615.3-5.615s6.23-1.938,9.607-4.462c10.49-7.836,20.608-17.205,34-18.868,5.607-.7,8.683,1.836,10.075,3.52" transform="translate(-57.464 -670.469)" fill="none" stroke="#000" stroke-linecap="round" stroke-linejoin="round" stroke-width="1"></path><path id="Tracé_2065" data-name="Tracé 2065" d="M216.642,651.894l-4.288-3.207s-5.161,5.027-9.262,6c-12.736,3.04-27.093,2.549-36.946,11.773-3.92,3.67-4.137,7.451-3.8,9.66" transform="translate(-106.022 -648.687)" fill="none" stroke="#000" stroke-linecap="round" stroke-linejoin="round" stroke-width="1"></path><path id="Tracé_2066" data-name="Tracé 2066" d="M171.025,655.473l-2.54-2.08L121.341,679.47c-2.377-2.38-7.962-1.093-9.3-.547l-.388.183c-1.708.965-4.994,3.745-4.687,7.1L55.82,705.229l-.088,3.281" transform="translate(-55.732 -650.909)" fill="none" stroke="#000" stroke-linecap="round" stroke-linejoin="round" stroke-width="1"></path><path id="Tracé_2067" data-name="Tracé 2067" d="M159.679,714.721A5.1,5.1,0,0,1,162.61,710l.388-.182a5.107,5.107,0,0,1,6.023,1.292" transform="translate(-104.815 -677.325)" fill="none" stroke="#000" stroke-linecap="round" stroke-linejoin="round" stroke-width="1"></path></g><path id="Tracé_2068" data-name="Tracé 2068" d="M203.864,742.759l47.189-27.335-22.443-58.091-50.927,29.086Z" transform="translate(-113.317 -652.77)" fill="none" stroke="#000" stroke-linecap="round" stroke-linejoin="round" stroke-width="1"></path><path id="Tracé_2069" data-name="Tracé 2069" d="M85.984,794.617l51.577-17.963-26.512-56.185L55.732,740.183Z" transform="translate(-55.732 -682.582)" fill="none" stroke="#000" stroke-linecap="round" stroke-linejoin="round" stroke-width="1"></path></g><g id="Groupe_551" data-name="Groupe 551" transform="translate(77.763 22.84)"><path id="Tracé_2070" data-name="Tracé 2070" d="M203.066,712.7l3.728,7.962,36.55-20.5-3.844-8.209Z" transform="translate(-203.066 -691.961)" fill="none" stroke="#000" stroke-linecap="round" stroke-linejoin="round" stroke-width="1"></path><line id="Ligne_18" data-name="Ligne 18" y1="20.497" x2="36.55" transform="translate(6.605 13.555)" fill="none" stroke="#000" stroke-linecap="round" stroke-linejoin="round" stroke-width="1"></line><line id="Ligne_19" data-name="Ligne 19" y1="9.648" x2="16.707" transform="translate(20.578 28.428)" fill="none" stroke="#000" stroke-linecap="round" stroke-linejoin="round" stroke-width="1"></line></g></g><path id="Tracé_2071" data-name="Tracé 2071" d="M422.277,85.48l-13.735-4.316a1.281,1.281,0,0,0-.768,2.444l1.122.353-13.54,43.09a6.022,6.022,0,0,0,11.491,3.611l13.539-43.09,1.123.353a1.281,1.281,0,0,0,.768-2.444Zm-11.735,25.536-5.95,18.936a3.659,3.659,0,0,1-6.982-2.193l5.95-18.937,7.677-24.43,6.981,2.193Z" transform="translate(-173.932 -26.195)" fill="none" stroke="#000" stroke-miterlimit="10" stroke-width="1"></path><g id="Groupe_553" data-name="Groupe 553" transform="translate(-29.586 225.033)"><path id="Tracé_2072" data-name="Tracé 2072" d="M85.608,440.969l-18.651-8.95.54-1.125a1.976,1.976,0,1,0-3.563-1.71l-5.4,11.258a1.976,1.976,0,0,0,3.563,1.71l.54-1.126,18.651,8.949a17.482,17.482,0,1,0,4.321-9Z" transform="translate(-58.338 -428.06)" fill="none" stroke="#000" stroke-linecap="round" stroke-linejoin="round" stroke-width="1"></path><path id="Tracé_2073" data-name="Tracé 2073" d="M129.85,447.949a6,6,0,0,0-9.169,1.532,6.582,6.582,0,0,0-.616,3.472,3.749,3.749,0,0,0-3.2,4.986,5.192,5.192,0,0,0-.688,8.9c-2.03,1.994-.042,5.376,1.932,6.323,0,0-1.715,2.829-.851,3.244a17.482,17.482,0,0,0,15.126-31.522C131.517,444.47,129.85,447.949,129.85,447.949Z" transform="translate(-84.607 -435.989)" fill="none" stroke="#000" stroke-linecap="round" stroke-linejoin="round" stroke-width="1"></path></g><g id="Groupe_555" data-name="Groupe 555" transform="translate(247.067 25.629)"><g id="Groupe_554" data-name="Groupe 554"><path id="Tracé_2074" data-name="Tracé 2074" d="M485.653,82.157A24.2,24.2,0,0,0,526.545,93.37q.5-.52.972-1.061" transform="translate(-463.769 -52.321)" fill="none" stroke="#000" stroke-linecap="round" stroke-linejoin="round" stroke-width="1"></path><path id="Tracé_2075" data-name="Tracé 2075" d="M531.486,57.943A24.2,24.2,0,1,0,484.6,47.533" transform="translate(-463.272 -25.629)" fill="none" stroke="#000" stroke-linecap="round" stroke-linejoin="round" stroke-width="1"></path><path id="Tracé_2076" data-name="Tracé 2076" d="M469.719,45.036a23.976,23.976,0,0,0-3.171,6.452c-4.3-.147-6.982.262-7.206,1.3s2.089,2.545,6.138,4.217c.651.269,1.34.542,2.077.817a166.094,166.094,0,0,0,21.812,6.128c6.616,1.438,12.809,2.472,17.949,3.061q2.649.3,4.889.443c5.408.346,8.86-.02,9.115-1.2s-2.682-2.914-7.672-4.826a24.309,24.309,0,0,0-.284-7.146c14.544,5.061,23.974,10.982,23.046,15.251-.938,4.314-12.212,5.769-27.806,4.258-1.257-.121-2.536-.259-3.844-.42-5.271-.646-10.94-1.6-16.815-2.877a179.393,179.393,0,0,1-20.88-5.821c-.345-.121-.681-.24-1.02-.363-13.83-4.961-22.7-10.664-21.8-14.807C445.143,45.407,455.344,43.886,469.719,45.036Z" transform="translate(-444.19 -34.617)" fill="none" stroke="#000" stroke-linecap="round" stroke-linejoin="round" stroke-width="1"></path></g></g><g id="Groupe_558" data-name="Groupe 558" transform="translate(384.936 297.461)"><path id="Tracé_2077" data-name="Tracé 2077" d="M720.266,609.2c-1.088-2.522-5.56-3-8.093-3.962a35.458,35.458,0,0,1-6.392-2.667,36.207,36.207,0,0,0,11.67,32.142c.333-3.062-.507-6.9-.526-9.284C716.867,619.929,722.7,614.8,720.266,609.2Z" transform="translate(-705.403 -569.89)" fill="none" stroke="#000" stroke-linecap="round" stroke-linejoin="round" stroke-width="1"></path><path id="Tracé_2078" data-name="Tracé 2078" d="M827.7,622.289c-.636.38-.3.836-.585,1.373-.619,1.182-.873,2.627-1.5,3.77-1.732,3.165-3.439,2.1-6.941,3-3.7.958-3.591,3.265-2.232,6.241a24.916,24.916,0,0,1,2.125,8.379c.034.391.134.977.249,1.63a37.67,37.67,0,0,0,15.645-23.9C832.092,622.248,828.857,621.587,827.7,622.289Z" transform="translate(-757.423 -579.059)" fill="none" stroke="#000" stroke-linecap="round" stroke-linejoin="round" stroke-width="1"></path><g id="Groupe_557" data-name="Groupe 557" transform="translate(0.378)"><g id="Groupe_556" data-name="Groupe 556" transform="translate(6.375 1.975)"><path id="Tracé_2079" data-name="Tracé 2079" d="M789.194,553.6a77.535,77.535,0,0,1-8.426,1.381c-5.246.4-16.068-1.678-16.356,5.864-.121,3.066,1.638,6.162,1.1,9.163-.305,1.692-.788,1.867-2.432,2.338a22.642,22.642,0,0,1-4.78.666c-.609.039-2.364-.039-3.7.13a2.782,2.782,0,0,0-1.464.47c-1.08,1.031-.281,3.323.319,4.353,1.659,2.865,5.333,4.093,8.525,5.171.471.159.926.312,1.366.471,4.608,1.626,7.388,2.756,6.528,7.817-.108.646-.195,1.295-.362,1.908a3.558,3.558,0,0,1-1.075,1.82c-1.266,1.093-3.34.7-4.607,1.634-3.365,2.5-.263,7.934,2.6,9.5,1.911,1.041,4.138,1.143,5.469,2.98,1.274,1.768,1.02,3.857,1.528,5.808a9.434,9.434,0,0,0,3.374,5.046,40.752,40.752,0,0,0,9.545-4c.937-.54,1.844-1.112,2.732-1.733-.116-.653-.215-1.239-.249-1.63a24.918,24.918,0,0,0-2.125-8.379c-1.36-2.976-1.473-5.282,2.232-6.241,3.5-.9,5.209.161,6.941-3,.631-1.143.885-2.587,1.5-3.77.282-.537-.05-.993.585-1.373,1.158-.7,4.393-.041,6.757.5.023-.124.062-.24.085-.354A36.382,36.382,0,0,0,789.194,553.6Z" transform="translate(-734.443 -548.742)" fill="none" stroke="#000" stroke-linecap="round" stroke-linejoin="round" stroke-width="1"></path><path id="Tracé_2080" data-name="Tracé 2080" d="M740.21,550.937a8.132,8.132,0,0,0-.923-4.842,19.337,19.337,0,0,0-1.027-1.7,39.856,39.856,0,0,0-12.778,6.973,38.669,38.669,0,0,0-7.284,7.73c2.152-.724,4.522-.889,6.549-2.118a15.651,15.651,0,0,1,3.764-1.515c.877-.247,1.771-.467,2.6-.628C734.119,554.247,739.308,554.68,740.21,550.937Z" transform="translate(-718.198 -544.398)" fill="none" stroke="#000" stroke-linecap="round" stroke-linejoin="round" stroke-width="1"></path></g><path id="Tracé_2081" data-name="Tracé 2081" d="M751.176,541.133a40.2,40.2,0,0,0-18.62,1.5,19.324,19.324,0,0,1,1.027,1.7,8.133,8.133,0,0,1,.923,4.842c-.9,3.742-6.091,3.309-9.1,3.9-.833.161-1.726.381-2.6.628a15.657,15.657,0,0,0-3.764,1.515c-2.027,1.228-4.4,1.394-6.549,2.118a36.927,36.927,0,0,0-6.223,14.788c-.073.409-.093.813-.152,1.211A35.463,35.463,0,0,0,712.511,576c2.533.966,7.006,1.44,8.093,3.962,2.43,5.6-3.4,10.732-3.34,16.228.019,2.387.858,6.222.526,9.284a38.756,38.756,0,0,0,20.166,9.533,40.191,40.191,0,0,0,16.9-1,9.434,9.434,0,0,1-3.374-5.046c-.508-1.951-.254-4.041-1.528-5.808-1.331-1.837-3.558-1.939-5.469-2.98-2.864-1.569-5.966-7.006-2.6-9.5,1.266-.938,3.341-.54,4.607-1.633a3.559,3.559,0,0,0,1.075-1.82c.167-.613.253-1.263.362-1.908.86-5.062-1.921-6.192-6.528-7.817-.441-.159-.9-.312-1.367-.471-3.192-1.078-6.866-2.305-8.525-5.171-.6-1.03-1.4-3.323-.319-4.353a2.783,2.783,0,0,1,1.464-.47c1.34-.169,3.1-.091,3.7-.13a22.645,22.645,0,0,0,4.78-.666c1.644-.471,2.127-.646,2.432-2.338.538-3-1.222-6.1-1.1-9.163.287-7.542,11.109-5.464,16.356-5.864a77.545,77.545,0,0,0,8.426-1.381A38.987,38.987,0,0,0,751.176,541.133Z" transform="translate(-706.119 -540.655)" fill="none" stroke="#000" stroke-linecap="round" stroke-linejoin="round" stroke-width="1"></path></g></g><g id="Groupe_559" data-name="Groupe 559" transform="translate(114.466 70.695)"><path id="Tracé_2082" data-name="Tracé 2082" d="M206.736,115.136a28.526,28.526,0,0,0,26.22,50.535l3.17-1.913,3.173-1.918a28.527,28.527,0,0,0-32.563-46.7Zm26.49,43.821a22.663,22.663,0,1,1,7.669-31.117A22.666,22.666,0,0,1,233.226,158.956Z" transform="translate(-192.956 -111.014)" fill="none" stroke="#000" stroke-linecap="round" stroke-linejoin="round" stroke-width="1"></path><path id="Tracé_2083" data-name="Tracé 2083" d="M280.1,209.394l-1.171-1.945a4.023,4.023,0,0,0-5.524-1.362l-.611.371-3.173,1.918-3.17,1.913-.612.371a4.03,4.03,0,0,0-1.366,5.527l1.181,1.949a4.028,4.028,0,0,0,5.526,1.356,4.025,4.025,0,0,0-1.368,5.527l15.206,25.154a4.031,4.031,0,0,0,5.53,1.357l3.779-2.284,3.786-2.292a4.012,4.012,0,0,0,1.356-5.519l-15.206-25.158a4.015,4.015,0,0,0-5.519-1.361A4.015,4.015,0,0,0,280.1,209.394Z" transform="translate(-226.455 -155.633)" fill="none" stroke="#000" stroke-linecap="round" stroke-linejoin="round" stroke-width="1"></path></g><g id="Groupe_560" data-name="Groupe 560" transform="translate(349.238 78.531)"><path id="Tracé_2084" data-name="Tracé 2084" d="M666,190.614c-.149,6.734-.682,30.8-.953,43.006" transform="translate(-650.648 -156.437)" fill="none" stroke="#000" stroke-linecap="round" stroke-linejoin="round" stroke-width="1"></path><path id="Tracé_2085" data-name="Tracé 2085" d="M672.8,236.4c.244-11,.767-34.634.955-43.112" transform="translate(-654.31 -157.699)" fill="none" stroke="#000" stroke-linecap="round" stroke-linejoin="round" stroke-width="1"></path><path id="Tracé_2086" data-name="Tracé 2086" d="M727.385,136.89,685.5,154.624" transform="translate(-660.306 -131.068)" fill="none" stroke="#000" stroke-linecap="round" stroke-linejoin="round" stroke-width="1"></path><path id="Tracé_2087" data-name="Tracé 2087" d="M688.126,161.887l42.186-17.86" transform="translate(-661.546 -134.438)" fill="none" stroke="#000" stroke-linecap="round" stroke-linejoin="round" stroke-width="1"></path><path id="Tracé_2088" data-name="Tracé 2088" d="M662.035,170.659a7.019,7.019,0,1,0,9.056-4.063A7.019,7.019,0,0,0,662.035,170.659Zm3.692,1.4a3.067,3.067,0,1,1,1.777,3.958A3.068,3.068,0,0,1,665.727,172.064Z" transform="translate(-649.009 -144.878)" fill="none" stroke="#000" stroke-linecap="round" stroke-linejoin="round" stroke-width="1"></path><path id="Tracé_2089" data-name="Tracé 2089" d="M637.767,274.073l1.293-3.4a5.477,5.477,0,0,1,7.067-3.171l17.538,6.673a5.477,5.477,0,0,1,3.172,7.067l-1.293,3.4Z" transform="translate(-637.767 -192.574)" fill="none" stroke="#000" stroke-linecap="round" stroke-linejoin="round" stroke-width="1"></path><path id="Tracé_2090" data-name="Tracé 2090" d="M770.466,137.465c-1.429-3.281-5.071-11.6-5.071-11.6l-3.506,1.526s3.68,8.411,5.1,11.667" transform="translate(-696.377 -125.86)" fill="none" stroke="#000" stroke-linecap="round" stroke-linejoin="round" stroke-width="1"></path><path id="Tracé_2091" data-name="Tracé 2091" d="M768.5,172.384l21.14-8.426L776.629,146.1,765.4,151Z" transform="translate(-698.037 -135.418)" fill="none" stroke="#000" stroke-linecap="round" stroke-linejoin="round" stroke-width="1"></path></g><g id="Groupe_561" data-name="Groupe 561" transform="translate(476.88 279.404)"><path id="Tracé_2092" data-name="Tracé 2092" d="M853.227,464.123l-2.8-5.884-8.3,1.24,4.893,10.3Z" transform="translate(-809.91 -457.681)" fill="none" stroke="#000" stroke-linecap="round" stroke-linejoin="round" stroke-width="1"></path><path id="Tracé_2093" data-name="Tracé 2093" d="M867.226,457.183l-9.29.645,2.712,5.7Z" transform="translate(-817.373 -457.183)" fill="none" stroke="#000" stroke-linecap="round" stroke-linejoin="round" stroke-width="1"></path><path id="Tracé_2094" data-name="Tracé 2094" d="M782.736,479.384v0l1.588,3.343,1.652,3.478L818.2,470.884l-1.655-3.477-1.589-3.342h0l-1.653-3.477-32.221,15.32Z" transform="translate(-781.083 -458.79)" fill="none" stroke="#000" stroke-linecap="round" stroke-linejoin="round" stroke-width="1"></path><line id="Ligne_20" data-name="Ligne 20" x1="30.792" y2="14.73" transform="translate(3.161 7.517)" fill="none" stroke="#000" stroke-linecap="round" stroke-linejoin="round" stroke-width="1"></line></g><g id="Groupe_563" data-name="Groupe 563" transform="translate(45.958 141.824)"><path id="Tracé_2095" data-name="Tracé 2095" d="M95.879,254.728l4.782-1.634a4.9,4.9,0,0,1,6.225,3.055l13.6,39.822a4.9,4.9,0,0,1-3.055,6.225L71.88,317.754a4.9,4.9,0,0,1-6.224-3.055l-13.6-39.822a4.9,4.9,0,0,1,3.055-6.224l4.551-1.554" transform="translate(-51.791 -249.108)" fill="none" stroke="#000" stroke-linecap="round" stroke-linejoin="round" stroke-width="1"></path><path id="Tracé_2096" data-name="Tracé 2096" d="M80.244,268.4l22.386-7.646" transform="translate(-65.226 -252.849)" fill="none" stroke="#000" stroke-linecap="round" stroke-linejoin="round" stroke-width="1"></path><g id="Groupe_562" data-name="Groupe 562" transform="translate(6.786)"><path id="Tracé_2097" data-name="Tracé 2097" d="M73.338,272.915a3.459,3.459,0,0,1-2.156,4.392h0a3.459,3.459,0,0,1-4.391-2.156l-1.957-5.728a3.46,3.46,0,0,1,2.156-4.391h0a3.459,3.459,0,0,1,4.392,2.155Z" transform="translate(-64.648 -254.781)" fill="none" stroke="#000" stroke-linecap="round" stroke-linejoin="round" stroke-width="1"></path><path id="Tracé_2098" data-name="Tracé 2098" d="M129.156,253.849A3.46,3.46,0,0,1,127,258.241h0a3.46,3.46,0,0,1-4.392-2.155l-1.956-5.728a3.46,3.46,0,0,1,2.155-4.392h0a3.46,3.46,0,0,1,4.392,2.156Z" transform="translate(-91.005 -245.779)" fill="none" stroke="#000" stroke-linecap="round" stroke-linejoin="round" stroke-width="1"></path></g></g><g id="Groupe_566" data-name="Groupe 566" transform="translate(483.441 381.037)"><path id="Tracé_2099" data-name="Tracé 2099" d="M770.333,739.728a4.022,4.022,0,0,1-2.179,5.253l-8.957,3.7a4.022,4.022,0,0,1-5.253-2.18l-3.7-8.956a4.022,4.022,0,0,1,2.18-5.253l8.956-3.7a4.021,4.021,0,0,1,5.253,2.18Z" transform="translate(-749.936 -719.83)" fill="none" stroke="#000" stroke-linecap="round" stroke-linejoin="round" stroke-width="1"></path><path id="Tracé_2100" data-name="Tracé 2100" d="M762.652,739.648a5.086,5.086,0,0,1,.921-.476,5,5,0,0,1,.988-.313l1.033,2.5c.126.3.257.678.392,1,.3-.126.662-.3.987-.432l2.316-.957a4.539,4.539,0,0,1,.45.86,4.445,4.445,0,0,1,.3.947l-2.315.957c-.325.135-.7.266-1,.391.134.325.306.683.423.967l1.041,2.518a4.9,4.9,0,0,1-.9.468,5.164,5.164,0,0,1-1.009.322l-1.041-2.519c-.118-.284-.249-.659-.383-.984-.325.135-.682.306-.987.432l-2.316.957a5.51,5.51,0,0,1-.748-1.807l2.316-.958c.3-.127.678-.257,1-.391-.135-.325-.306-.683-.432-.988Z" transform="translate(-755.064 -724.823)" fill="none" stroke="#000" stroke-miterlimit="10" stroke-width="1"></path><path id="Tracé_2101" data-name="Tracé 2101" d="M809.087,723.707a4.022,4.022,0,0,1-2.18,5.253l-8.956,3.7a4.022,4.022,0,0,1-5.253-2.181l-3.7-8.956a4.023,4.023,0,0,1,2.18-5.253l8.956-3.7a4.023,4.023,0,0,1,5.254,2.179Z" transform="translate(-768.235 -712.265)" fill="none" stroke="#000" stroke-linecap="round" stroke-linejoin="round" stroke-width="1"></path><path id="Tracé_2102" data-name="Tracé 2102" d="M803.568,732.083a3.74,3.74,0,0,1-.47-.852,3.8,3.8,0,0,1-.277-.956l5.038-2.083a3.774,3.774,0,0,1,.479.873,3.723,3.723,0,0,1,.268.935Z" transform="translate(-774.908 -719.786)" fill="none" stroke="#000" stroke-miterlimit="10" stroke-width="1"></path><path id="Tracé_2103" data-name="Tracé 2103" d="M785.7,776.9a4.023,4.023,0,0,1-2.18,5.254l-8.957,3.7a4.021,4.021,0,0,1-5.253-2.18l-3.7-8.956a4.022,4.022,0,0,1,2.18-5.253l8.956-3.7a4.023,4.023,0,0,1,5.254,2.18Z" transform="translate(-757.193 -737.384)" fill="none" stroke="#000" stroke-linecap="round" stroke-linejoin="round" stroke-width="1"></path><path id="Tracé_2104" data-name="Tracé 2104" d="M824.457,760.882a4.022,4.022,0,0,1-2.18,5.254l-8.956,3.7a4.023,4.023,0,0,1-5.253-2.18l-3.7-8.956a4.021,4.021,0,0,1,2.179-5.253l8.956-3.7a4.021,4.021,0,0,1,5.253,2.18Z" transform="translate(-775.492 -729.819)" fill="none" stroke="#000" stroke-linecap="round" stroke-linejoin="round" stroke-width="1"></path><g id="Groupe_564" data-name="Groupe 564" transform="translate(33.918 24.967)"><path id="Tracé_2105" data-name="Tracé 2105" d="M818.2,769.589a3.359,3.359,0,0,1-1-.229,2.582,2.582,0,0,1-.847-.553l1.188-2.823c.1-.279.238-.575.357-.862l-.87-.377-2.834-1.16a2.682,2.682,0,0,1,.754-1.857l2.842,1.179c.267.128.572.288.859.407.139-.3.262-.633.369-.891l1.151-2.853a2.693,2.693,0,0,1,.99.209,2.959,2.959,0,0,1,.876.566l-1.187,2.822c-.1.279-.271.611-.391.9.279.1.635.213.894.32l2.842,1.18a2.817,2.817,0,0,1-.209.99,2.436,2.436,0,0,1-.574.856l-2.822-1.187-.882-.35-.337.854Z" transform="translate(-814.199 -759.569)" fill="none" stroke="#000" stroke-miterlimit="10" stroke-width="1"></path></g><g id="Groupe_565" data-name="Groupe 565" transform="translate(13.832 33.49)"><path id="Tracé_2106" data-name="Tracé 2106" d="M776.89,783.285a4.622,4.622,0,0,1-.451-.861,5.2,5.2,0,0,1-.3-.947l8.491-3.51a5.126,5.126,0,0,1,.46.88,4.582,4.582,0,0,1,.288.927Zm.972-6.682a2.6,2.6,0,0,1,2.112-.874,2.588,2.588,0,0,1,.544.8,2.368,2.368,0,0,1,.169.929,2.427,2.427,0,0,1-.956.679,2.183,2.183,0,0,1-1.157.193,2.372,2.372,0,0,1-.535-.777A2.589,2.589,0,0,1,777.863,776.6Zm3,7.251a2.533,2.533,0,0,1,.956-.68,2.506,2.506,0,0,1,1.157-.193,2.3,2.3,0,0,1,.714,1.727,2.607,2.607,0,0,1-2.112.873,2.505,2.505,0,0,1-.544-.8A2.394,2.394,0,0,1,780.86,783.855Z" transform="translate(-776.143 -775.716)" fill="none" stroke="#000" stroke-miterlimit="10" stroke-width="1"></path></g></g><g id="Groupe_569" data-name="Groupe 569" transform="translate(87.429 248.268)"><path id="Tracé_2107" data-name="Tracé 2107" d="M239.959,385.744a26.852,26.852,0,1,1-32.995-18.8A26.853,26.853,0,0,1,239.959,385.744Z" transform="translate(-187.202 -365.982)" fill="none" stroke="#000" stroke-linecap="round" stroke-linejoin="round" stroke-width="1"></path><g id="Groupe_567" data-name="Groupe 567" transform="translate(7.291 20.363)"><path id="Tracé_2108" data-name="Tracé 2108" d="M204.084,424.41a1.561,1.561,0,1,1-1.919-1.093A1.561,1.561,0,0,1,204.084,424.41Z" transform="translate(-201.016 -413.391)" fill="none" stroke="#000" stroke-miterlimit="10" stroke-width="1"></path><path id="Tracé_2109" data-name="Tracé 2109" d="M272.313,405.712a1.561,1.561,0,1,1-1.919-1.094A1.561,1.561,0,0,1,272.313,405.712Z" transform="translate(-233.234 -404.562)" fill="#fff" stroke="#000" stroke-miterlimit="10" stroke-width="1"></path></g><g id="Groupe_568" data-name="Groupe 568" transform="translate(20.363 7.291)"><path id="Tracé_2110" data-name="Tracé 2110" d="M227.756,382.864a1.562,1.562,0,1,1,1.094-1.919A1.561,1.561,0,0,1,227.756,382.864Z" transform="translate(-225.782 -379.796)" fill="none" stroke="#000" stroke-miterlimit="10" stroke-width="1"></path><path id="Tracé_2111" data-name="Tracé 2111" d="M246.455,451.094a1.561,1.561,0,1,1,1.093-1.919A1.561,1.561,0,0,1,246.455,451.094Z" transform="translate(-234.611 -412.014)" fill="none" stroke="#000" stroke-miterlimit="10" stroke-width="1"></path></g><path id="Tracé_2112" data-name="Tracé 2112" d="M238.408,386.155a1.315,1.315,0,0,0-2.4-.4l-9.343,14.909-10.21-3.645a1.3,1.3,0,0,0-.443-.078,1.319,1.319,0,0,0-1.239.875,1.316,1.316,0,0,0,.8,1.682l11.1,3.963a1.3,1.3,0,0,0,.537.129,1.2,1.2,0,0,0,.191-.024l.051-.006a1.416,1.416,0,0,0,.377-.125c.018-.009.035-.021.053-.032a1.313,1.313,0,0,0,.53-.565l9.83-15.686A1.305,1.305,0,0,0,238.408,386.155Z" transform="translate(-200.185 -375.025)" fill="none" stroke="#000" stroke-miterlimit="10" stroke-width="1"></path></g><g id="Groupe_571" data-name="Groupe 571" transform="translate(-28.03 302.399)"><g id="Groupe_570" data-name="Groupe 570" transform="translate(0)"><path id="Tracé_2113" data-name="Tracé 2113" d="M36.912,616.974l.945,2.269a2.988,2.988,0,0,0,3.907,1.609l1.56-.651a16.357,16.357,0,0,0,3.091,3.08l-.643,1.56a2.987,2.987,0,0,0,1.626,3.9l2.273.935a2.986,2.986,0,0,0,3.9-1.626l.642-1.559a16.322,16.322,0,0,0,4.363-.012l.65,1.559a2.988,2.988,0,0,0,3.907,1.609L65.4,628.7a2.989,2.989,0,0,0,1.609-3.907l-.651-1.559a16.352,16.352,0,0,0,3.08-3.09l1.56.641a2.988,2.988,0,0,0,3.9-1.626l.934-2.272a2.987,2.987,0,0,0-1.625-3.9l-1.56-.642a16.313,16.313,0,0,0-.012-4.362l1.56-.651a2.988,2.988,0,0,0,1.608-3.908l-.946-2.267a2.989,2.989,0,0,0-3.907-1.609l-1.559.65a16.4,16.4,0,0,0-3.091-3.08l.642-1.559a2.986,2.986,0,0,0-1.626-3.9l-2.272-.936a2.989,2.989,0,0,0-3.9,1.626l-.642,1.56a16.29,16.29,0,0,0-4.362.012l-.651-1.56a2.988,2.988,0,0,0-3.907-1.608l-2.268.946a2.987,2.987,0,0,0-1.608,3.907l.649,1.56a16.286,16.286,0,0,0-3.079,3.09l-1.56-.642a2.989,2.989,0,0,0-3.9,1.625l-.935,2.272a2.987,2.987,0,0,0,1.626,3.9l1.56.643a16.313,16.313,0,0,0,.012,4.362l-1.559.65A2.987,2.987,0,0,0,36.912,616.974Zm9.146-2.48A11.159,11.159,0,1,1,60.65,620.5,11.158,11.158,0,0,1,46.058,614.494Z" transform="translate(-36.656 -565.13)" fill="none" stroke="#000" stroke-linecap="round" stroke-linejoin="round" stroke-width="1"></path><path id="Tracé_2114" data-name="Tracé 2114" d="M104.216,557.394l-.047,1.951a2.37,2.37,0,0,0,2.312,2.425l1.34.032a12.956,12.956,0,0,0,1.246,3.231l-.969.923a2.37,2.37,0,0,0-.081,3.352l1.346,1.411a2.37,2.37,0,0,0,3.352.08l.968-.923a13.056,13.056,0,0,0,3.165,1.4l-.031,1.34a2.371,2.371,0,0,0,2.313,2.427l1.948.046a2.37,2.37,0,0,0,2.426-2.312l.033-1.341a12.971,12.971,0,0,0,3.231-1.246l.922.969a2.37,2.37,0,0,0,3.352.081l1.412-1.346a2.37,2.37,0,0,0,.081-3.35l-.923-.968a12.964,12.964,0,0,0,1.4-3.166l1.34.031a2.372,2.372,0,0,0,2.428-2.312l.048-1.949a2.372,2.372,0,0,0-2.314-2.427l-1.34-.033a12.969,12.969,0,0,0-1.246-3.229l.969-.924a2.369,2.369,0,0,0,.081-3.351l-1.345-1.411a2.371,2.371,0,0,0-3.352-.081l-.97.924a12.939,12.939,0,0,0-3.165-1.4l.032-1.341a2.37,2.37,0,0,0-2.313-2.426l-1.949-.047a2.37,2.37,0,0,0-2.427,2.313l-.033,1.34a12.9,12.9,0,0,0-3.229,1.245l-.924-.969a2.373,2.373,0,0,0-3.352-.082l-1.411,1.346a2.371,2.371,0,0,0-.081,3.352l.924.968a12.969,12.969,0,0,0-1.4,3.166l-1.341-.032A2.369,2.369,0,0,0,104.216,557.394Zm7.429,1.154a8.853,8.853,0,1,1,8.638,9.063A8.854,8.854,0,0,1,111.645,558.548Z" transform="translate(-68.535 -542.434)" fill="none" stroke="#000" stroke-linecap="round" stroke-linejoin="round" stroke-width="1"></path></g></g><g id="Groupe_572" data-name="Groupe 572" transform="translate(175.316 0.094)"><path id="Tracé_2115" data-name="Tracé 2115" d="M310.9,63.846a12.789,12.789,0,0,1,.2-4.293c1.125-3.578,8.089-8.473,7.911-15.265-.178-6.739-4.387-17.66-17.717-15.636-12.5,1.9-15.49,13.513-13.173,19.9,2.931,8.079,9.574,7.84,12.446,11.748.514.7,1.415,4.9,1.415,4.9Z" transform="translate(-287.405 -28.406)" fill="none" stroke="#000" stroke-linecap="round" stroke-linejoin="round" stroke-width="1"></path><path id="Tracé_2116" data-name="Tracé 2116" d="M324.433,97.367a2.106,2.106,0,0,1-1.767,2.4l-8.748,1.328a2.106,2.106,0,0,1-2.4-1.767h0a2.105,2.105,0,0,1,1.767-2.4l8.748-1.328a2.107,2.107,0,0,1,2.4,1.767Z" transform="translate(-298.78 -60.123)" fill="none" stroke="#000" stroke-linecap="round" stroke-linejoin="round" stroke-width="1"></path><path id="Tracé_2117" data-name="Tracé 2117" d="M325.631,105.259a2.107,2.107,0,0,1-1.767,2.4l-8.748,1.328a2.108,2.108,0,0,1-2.4-1.767h0a2.107,2.107,0,0,1,1.767-2.4l8.748-1.328a2.107,2.107,0,0,1,2.4,1.767Z" transform="translate(-299.346 -63.85)" fill="none" stroke="#000" stroke-linecap="round" stroke-linejoin="round" stroke-width="1"></path><path id="Tracé_2118" data-name="Tracé 2118" d="M322.35,115.432c2.3-.349,3.94-2.125,3.66-3.965l-8.332,1.265C317.958,114.573,320.049,115.782,322.35,115.432Z" transform="translate(-301.7 -67.627)" fill="none" stroke="#000" stroke-linecap="round" stroke-linejoin="round" stroke-width="1"></path><path id="Tracé_2119" data-name="Tracé 2119" d="M313.718,74.978l-8.835-20.867,5.044,2.074,1.271-5.061,2.317,4.219,4.438-3.874-2.1,23.487" transform="translate(-295.658 -39.133)" fill="none" stroke="#000" stroke-linecap="round" stroke-linejoin="round" stroke-width="1"></path></g><g id="Groupe_574" data-name="Groupe 574" transform="translate(440.288 132.266)"><path id="Tracé_2120" data-name="Tracé 2120" d="M748.313,240.932h34.88a6.246,6.246,0,0,1,6.245,6.245v22.394a6.245,6.245,0,0,1-6.245,6.245H761.714L751.432,286.1V275.817h-3.119a6.245,6.245,0,0,1-6.245-6.245V247.177A6.246,6.246,0,0,1,748.313,240.932Z" transform="translate(-742.068 -240.932)" fill="none" stroke="#000" stroke-linecap="round" stroke-linejoin="round" stroke-width="1"></path><g id="Groupe_573" data-name="Groupe 573" transform="translate(7.312 13.955)"><path id="Tracé_2121" data-name="Tracé 2121" d="M803.294,271.243a3.872,3.872,0,1,0,3.872-3.872A3.872,3.872,0,0,0,803.294,271.243Z" transform="translate(-778.291 -267.371)" fill="none" stroke="#000" stroke-linecap="round" stroke-linejoin="round" stroke-width="1"></path><path id="Tracé_2122" data-name="Tracé 2122" d="M779.608,271.243a3.872,3.872,0,1,0,3.872-3.872A3.872,3.872,0,0,0,779.608,271.243Z" transform="translate(-767.106 -267.371)" fill="none" stroke="#000" stroke-linecap="round" stroke-linejoin="round" stroke-width="1"></path><path id="Tracé_2123" data-name="Tracé 2123" d="M755.922,271.243a3.872,3.872,0,1,0,3.871-3.872A3.872,3.872,0,0,0,755.922,271.243Z" transform="translate(-755.922 -267.371)" fill="none" stroke="#000" stroke-linecap="round" stroke-linejoin="round" stroke-width="1"></path></g></g><path id="Tracé_2124" data-name="Tracé 2124" d="M690.756,32.275,699.4,45.3l14.352-2.277-8.614,12.813,4.719,13.905-13.907-4.713-11.766,8.785.184-14.683-12.156-9.519,14.351-2.276Z" transform="translate(-280.796 -10.19)" fill="none" stroke="#000" stroke-linecap="round" stroke-linejoin="round" stroke-width="1"></path><path id="Tracé_2125" data-name="Tracé 2125" d="M369.191,771.68l-7.962,13.459,8.3,11.928-15.286-2.173-10.46,10.3-1.816-14.571-13.033-6.765,13.3-6.229,3.273-15.089,8.3,11.927Z" transform="translate(-139.796 -330.97)" fill="none" stroke="#000" stroke-linecap="round" stroke-linejoin="round" stroke-width="1"></path><path id="Tracé_2126" data-name="Tracé 2126" d="M804.805,350.882l-10.537,11.554,5.7,13.368-14.522-5.242L773.1,378.521l1.191-14.636-11.381-9.278,14.287-3.39,6.279-14.105,5.7,13.368Z" transform="translate(-296.622 -140.082)" fill="none" stroke="#000" stroke-linecap="round" stroke-linejoin="round" stroke-width="1"></path><g id="Groupe_575" data-name="Groupe 575" transform="translate(250.381 449.46)"><path id="Tracé_2127" data-name="Tracé 2127" d="M558.116,802.168a3.426,3.426,0,1,1-.092,4.845A3.426,3.426,0,0,1,558.116,802.168Z" transform="translate(-504.804 -781.689)" fill="none" stroke="#000" stroke-linecap="round" stroke-linejoin="round" stroke-width="1"></path><path id="Tracé_2128" data-name="Tracé 2128" d="M536.649,822.833a3.426,3.426,0,1,1-.092,4.845A3.427,3.427,0,0,1,536.649,822.833Z" transform="translate(-494.667 -791.447)" fill="none" stroke="#000" stroke-linecap="round" stroke-linejoin="round" stroke-width="1"></path><path id="Tracé_2129" data-name="Tracé 2129" d="M494.7,863.212a3.426,3.426,0,1,1-.092,4.845A3.425,3.425,0,0,1,494.7,863.212Z" transform="translate(-474.86 -810.514)" fill="none" stroke="#000" stroke-linecap="round" stroke-linejoin="round" stroke-width="1"></path><path id="Tracé_2130" data-name="Tracé 2130" d="M522.513,765.181a3.426,3.426,0,1,1-.092,4.845A3.426,3.426,0,0,1,522.513,765.181Z" transform="translate(-487.992 -764.224)" fill="none" stroke="#000" stroke-linecap="round" stroke-linejoin="round" stroke-width="1"></path><path id="Tracé_2131" data-name="Tracé 2131" d="M551.1,772.611a3.426,3.426,0,1,1-.092,4.844A3.426,3.426,0,0,1,551.1,772.611Z" transform="translate(-501.491 -767.732)" fill="none" stroke="#000" stroke-linecap="round" stroke-linejoin="round" stroke-width="1"></path><path id="Tracé_2132" data-name="Tracé 2132" d="M506.6,815.444a3.426,3.426,0,1,1-.092,4.845A3.427,3.427,0,0,1,506.6,815.444Z" transform="translate(-480.479 -787.958)" fill="none" stroke="#000" stroke-linecap="round" stroke-linejoin="round" stroke-width="1"></path><path id="Tracé_2133" data-name="Tracé 2133" d="M485.912,835.361a3.426,3.426,0,1,1-.092,4.844A3.426,3.426,0,0,1,485.912,835.361Z" transform="translate(-470.709 -797.362)" fill="none" stroke="#000" stroke-linecap="round" stroke-linejoin="round" stroke-width="1"></path><path id="Tracé_2134" data-name="Tracé 2134" d="M501.046,785.847a3.426,3.426,0,1,1-.092,4.844A3.425,3.425,0,0,1,501.046,785.847Z" transform="translate(-477.855 -773.982)" fill="none" stroke="#000" stroke-linecap="round" stroke-linejoin="round" stroke-width="1"></path><path id="Tracé_2135" data-name="Tracé 2135" d="M459.1,826.225a3.426,3.426,0,1,1-.092,4.844A3.427,3.427,0,0,1,459.1,826.225Z" transform="translate(-458.047 -793.048)" fill="none" stroke="#000" stroke-linecap="round" stroke-linejoin="round" stroke-width="1"></path><path id="Tracé_2136" data-name="Tracé 2136" d="M477.793,836.841l-7.434-2.222" transform="translate(-463.861 -797.464)" fill="none" stroke="#000" stroke-linecap="round" stroke-linejoin="round" stroke-width="1"></path><path id="Tracé_2137" data-name="Tracé 2137" d="M496.006,855.434s-1.465-4.576-2.539-7.934" transform="translate(-474.773 -803.547)" fill="none" stroke="#000" stroke-linecap="round" stroke-linejoin="round" stroke-width="1"></path><path id="Tracé_2138" data-name="Tracé 2138" d="M508.13,797.807c.68,2.654,1.613,6.3,2.256,8.815" transform="translate(-481.696 -780.082)" fill="none" stroke="#000" stroke-linecap="round" stroke-linejoin="round" stroke-width="1"></path><path id="Tracé_2139" data-name="Tracé 2139" d="M517.777,775.217l-6.148,5.918" transform="translate(-483.349 -769.415)" fill="none" stroke="#000" stroke-linecap="round" stroke-linejoin="round" stroke-width="1"></path><path id="Tracé_2140" data-name="Tracé 2140" d="M542.673,774.54l-8.072-2.1" transform="translate(-494.196 -768.104)" fill="none" stroke="#000" stroke-linecap="round" stroke-linejoin="round" stroke-width="1"></path><path id="Tracé_2141" data-name="Tracé 2141" d="M560.092,793.1c-.615-2.589-1.432-6.033-2.031-8.556" transform="translate(-505.274 -773.82)" fill="none" stroke="#000" stroke-linecap="round" stroke-linejoin="round" stroke-width="1"></path><path id="Tracé_2142" data-name="Tracé 2142" d="M547.369,818.092l6.03-5.8" transform="translate(-500.225 -786.919)" fill="none" stroke="#000" stroke-linecap="round" stroke-linejoin="round" stroke-width="1"></path><path id="Tracé_2143" data-name="Tracé 2143" d="M519.066,821.531l8.7,2.584" transform="translate(-486.86 -791.284)" fill="none" stroke="#000" stroke-linecap="round" stroke-linejoin="round" stroke-width="1"></path><line id="Ligne_21" data-name="Ligne 21" y1="5.759" x2="5.984" transform="translate(20.047 32.331)" fill="none" stroke="#000" stroke-linecap="round" stroke-linejoin="round" stroke-width="1"></line></g><g id="Groupe_585" data-name="Groupe 585" transform="translate(98.044 112.003)"><g id="Groupe_581" data-name="Groupe 581" transform="translate(0 0)"><path id="Tracé_2144" data-name="Tracé 2144" d="M456.089,460.743c.213,6.432-48.481,41.1-97.623,41.514-49.944.422-100.349-33.485-100.349-41.475V490.9c0,7.99,33.361,36.755,100.349,36.755,63.675,0,97.836-30.323,97.623-36.755Z" transform="translate(-207.303 -317.464)" fill="#b8d9e5" stroke="#000" stroke-miterlimit="10" stroke-width="2"></path><g id="Groupe_576" data-name="Groupe 576" transform="translate(50.812 106.926)"><path id="Tracé_2145" data-name="Tracé 2145" d="M633.2,461.1c0-.01,0-.02,0-.029v.058C633.2,461.115,633.2,461.106,633.2,461.1Z" transform="translate(-435.229 -424.542)" fill="#324446" stroke="#000" stroke-miterlimit="10" stroke-width="2"></path><path id="Tracé_2146" data-name="Tracé 2146" d="M456.034,427.276c-1.636-19.66-45.3-35.411-98.934-35.411-53.657,0-97.339,15.766-98.937,35.438-.03.371-.05.742-.05,1.116,0,20.025,43.608,41.043,97.669,41.3.439,0,.877.006,1.318.006l.169,0c.4,0,.8.007,1.192,0,.24,0,.479-.009.719-.013,53.681-.41,96.863-21.355,96.9-41.272v-.058C456.085,428.017,456.064,427.646,456.034,427.276Z" transform="translate(-258.113 -391.865)" fill="#e4e8ea" stroke="#000" stroke-miterlimit="10" stroke-width="2"></path></g><path id="Tracé_2147" data-name="Tracé 2147" d="M455.543,302.155l-93.823,51.239L267.9,302.155l.181,82.344c0,7.559,29.232,35.629,94.931,35.629,70.648,0,92.555-29.543,92.354-35.629Z" transform="translate(-211.922 -242.579)" fill="#b8d9e5" stroke="#000" stroke-miterlimit="10" stroke-width="2"></path><path id="Tracé_2149" data-name="Tracé 2149" d="M413.638,258.986,311.579,213.078,210.33,258.986l-48.487,9.494v10h0l70.162,31.16,79.573,35.339,151.07-66.5h.005v-10Z" transform="translate(-161.842 -200.517)" fill="#fee77b" stroke="#000" stroke-miterlimit="10" stroke-width="2"></path><path id="Tracé_2150" data-name="Tracé 2150" d="M311.579,189.278,161.842,257.242l149.737,66.5,151.076-66.5Z" transform="translate(-161.842 -189.278)" fill="#fee77b" stroke="#000" stroke-miterlimit="10" stroke-width="2"></path><path id="Tracé_2151" data-name="Tracé 2151" d="M377.491,301.657s-68.073,20.232-78.408,38.465c-1.086,1.914-1.8,5.169-2.259,8.993l5.938,3.42s.07-8.051,1.077-9.815c10.316-18.052,79.544-38.875,79.544-38.875Z" transform="translate(-225.58 -242.343)" fill="#0b2025" stroke="#000" stroke-miterlimit="10" stroke-width="2" opacity="0.4"></path><path id="Tracé_2152" data-name="Tracé 2152" d="M447.922,297.816c0,3.514-5.958,6.364-13.3,6.364s-13.3-2.85-13.3-6.364,5.953-6.362,13.3-6.362S447.922,294.3,447.922,297.816Z" transform="translate(-284.368 -237.526)" fill="#0b2025" stroke="#000" stroke-miterlimit="10" stroke-width="2" opacity="0.5" style="mix-blend-mode: multiply;isolation: isolate"></path><g id="Groupe_577" data-name="Groupe 577" transform="translate(68.197 56.85)"><path id="Tracé_2153" data-name="Tracé 2153" d="M372.478,296.99S304.4,317.223,294.07,335.455c-4.428,7.811-2.676,37.956-2.676,37.956l5.393-.812s-1.992-27.49,2.039-34.546C309.143,320,376.906,300.34,376.906,300.34Z" transform="translate(-291.052 -296.99)" fill="#fee77b" stroke="#000" stroke-miterlimit="10" stroke-width="2"></path><path id="Tracé_2154" data-name="Tracé 2154" d="M427.959,306.256l3.955-1.132s-1.825-1.921-2.109-2.063-1.694.557-1.694.557l-.766.319C428.03,303.818,428.847,305.9,427.959,306.256Z" transform="translate(-355.409 -299.848)" fill="#fee77b" stroke="#000" stroke-miterlimit="10" stroke-width="2"></path></g><g id="Groupe_578" data-name="Groupe 578" transform="translate(137.871 51.141)"><path id="Tracé_2155" data-name="Tracé 2155" d="M447.826,292.1c0,3.269-5.547,5.922-12.384,5.922s-12.383-2.653-12.383-5.922,5.542-5.926,12.383-5.926S447.826,288.825,447.826,292.1Z" transform="translate(-423.059 -286.173)" stroke="#000" stroke-miterlimit="10" stroke-width="2"></path></g><g id="Groupe_579" data-name="Groupe 579" transform="translate(68.21 140.889)"><rect id="Rectangle_73" data-name="Rectangle 73" width="5.176" height="16.665" stroke="#000" stroke-miterlimit="10" stroke-width="2" fill="url(#linear-gradient)"></rect></g><g id="Groupe_580" data-name="Groupe 580" transform="translate(52.213 141.588)"><path id="Tracé_2156" data-name="Tracé 2156" d="M297.141,515.289c0-2.2-1.955-19.6-5.335-34.916-2.635-11.942-5.567-22.835-12.832-22.835-16.582,0-18.507,53.218-18.172,57.751.2,2.663,1.559,5.409,5.391,7.558a17.724,17.724,0,0,0,3.843,1.369,37.9,37.9,0,0,0,8.933.92,28.2,28.2,0,0,0,4.687-.235c1.86-.323,2.739-.411,3.759-.633C294.962,522.626,297.141,518.29,297.141,515.289Z" transform="translate(-260.769 -457.538)" fill="#fee77b" stroke="#000" stroke-miterlimit="10" stroke-width="2"></path><path id="Tracé_2157" data-name="Tracé 2157" d="M281.656,457.769a6.638,6.638,0,0,0-1.548-.216c-.83.5-1.91,1.186-3.3,2.111-10.953,7.3-13.917,45.015-13.985,59.145a10.916,10.916,0,0,0,4.338,4.045,17.728,17.728,0,0,0,3.843,1.369,29.342,29.342,0,0,0,3.444.61c.235-23.976,3.225-61.1,5-64.9C279.451,459.928,280.746,458.754,281.656,457.769Z" transform="translate(-261.741 -457.545)" fill="#fee77b" stroke="#000" stroke-miterlimit="10" stroke-width="2"></path><path id="Tracé_2158" data-name="Tracé 2158" d="M304.54,521.465a7.872,7.872,0,0,0,3.4-6.176c0-3.917-1.585-57.751-18.167-57.751a8.478,8.478,0,0,0-6.06,2.778c-.955,1.365,7.269,1.9,9.788,5.674,5.982,8.973,11.084,25.862,11.084,55.067A3.81,3.81,0,0,1,304.54,521.465Z" transform="translate(-271.565 -457.538)" fill="#fee77b" stroke="#000" stroke-miterlimit="10" stroke-width="2"></path></g></g><path id="Tracé_2159" data-name="Tracé 2159" d="M481.31,607.293c-12.019,4.152-22.235,8.194-32.344,12.6C443.578,606.519,408.83,596.2,366.76,596.2c-45.8,0-82.936,12.233-82.936,27.322,0,14.877,36.094,26.977,81.009,27.315-13.829,2.251-23.742,6.739-23.742,11.789,0,6.178,7.488,13.814,17.681,16.362,13.723,3.431,20.056.792,24.015-.528,23.234-7.744,123.82-50.449,130.191-54.1C520.318,620.154,490.986,603.951,481.31,607.293Z" transform="translate(-219.442 -381.426)" fill="#0b2025" stroke="#000" stroke-miterlimit="10" stroke-width="2" opacity="0.2" style="mix-blend-mode: multiply;isolation: isolate"></path><path id="Tracé_2160" data-name="Tracé 2160" d="M480.958,608.525a201.682,201.682,0,0,0-31.992,11.368C443.578,606.519,408.83,596.2,366.76,596.2c-45.8,0-82.936,12.233-82.936,27.322,0,14.877,36.094,26.977,81.009,27.315-13.829,2.251-23.742,6.739-23.742,11.789,0,6.178,7.488,13.814,17.681,16.362,13.723,3.431,20.056.792,24.015-.528,23.234-7.744,123.82-50.449,130.191-54.1C520.318,620.154,490.328,606.115,480.958,608.525Z" transform="translate(-219.442 -381.426)" opacity="0.2" fill="url(#radial-gradient)" style="mix-blend-mode: multiply;isolation: isolate"></path><g id="Groupe_584" data-name="Groupe 584" transform="translate(110.496 103.089)"><g id="Groupe_583" data-name="Groupe 583"><path id="Tracé_2161" data-name="Tracé 2161" d="M536.815,387.41l.055.062c7.9-6.54,23.048-1.554,33.962,11.218,10.269,12.018,13.146,26.668,7.045,34l-154.4,140.463-41.288-45.53Z" transform="translate(-376.387 -384.597)" fill="#fffcf7" stroke="#000" stroke-miterlimit="10" stroke-width="2"></path><path id="Tracé_2162" data-name="Tracé 2162" d="M385.489,687.047c-4.83-5.653-9.348-11.282-10.744-17.065-.541-2.242,4.611-4.9,3.616-6.787-1.768-3.348-1.586-8.951,1.473-11.566,7.855-6.713,23.124-1.739,34.1,11.108s13.51,28.706,5.654,35.417S396.466,699.894,385.489,687.047Z" transform="translate(-372.852 -509.278)" fill="#fffcf7" stroke="#000" stroke-miterlimit="10" stroke-width="2"></path><path id="Tracé_2163" data-name="Tracé 2163" d="M417.472,538.057c-10.978-12.848-26.247-17.821-34.1-11.109a11.7,11.7,0,0,0-.952.926l-.226-.249L536.815,387.41l.055.062c7.9-6.54,23.048-1.554,33.962,11.218,10.269,12.018,13.146,26.668,7.045,34L424.662,574.054l-1.188-.9C430.893,566.267,428.281,550.707,417.472,538.057Z" transform="translate(-376.387 -384.597)" fill="#fffcf7" stroke="#000" stroke-miterlimit="10" stroke-width="2"></path><g id="Groupe_582" data-name="Groupe 582" transform="translate(0 136.735)"><path id="Tracé_2164" data-name="Tracé 2164" d="M414.375,700.3a15.853,15.853,0,0,0,9.787-9.555c3.113-8.12.519-18.952-6.938-28.975-13.773-18.512-27.665-20.5-36.069-16.2a11.1,11.1,0,0,0-5.929,6.829c-2.155,7.3,3.277,16.713,6.2,21.768l.423.735c3.732,6.505,18.676,19.328,27.075,15.928a9,9,0,0,0,5.433-5.238c1.907-5.195-1.465-11.623-3.278-15.077l-.265-.507c-2.464-4.734-14.538-16.693-21.409-13.316a6.677,6.677,0,0,0-3.836,4.938c-.767,4.355,2.484,9.616,4.857,12.089a1.893,1.893,0,0,0,2.732-2.622c-1.844-1.922-4.346-6.051-3.859-8.812a2.918,2.918,0,0,1,1.779-2.2c3.637-1.8,14.13,7.347,16.377,11.667l.272.52c1.429,2.724,4.4,8.393,3.076,12.01a5.32,5.32,0,0,1-3.3,3.033c-5.275,2.151-18.688-7.877-22.373-14.3l-.428-.743c-2.635-4.563-7.539-13.058-5.844-18.8a7.359,7.359,0,0,1,4.024-4.529c6.713-3.438,18.93-1.544,31.3,15.089,6.679,8.976,9.086,18.457,6.44,25.36a12.333,12.333,0,0,1-9.411,7.855c-9.836,1.985-28.882-8.808-36.341-30.238a1.893,1.893,0,1,0-3.575,1.245c8.243,23.684,29.24,35.01,40.664,32.705A18.44,18.44,0,0,0,414.375,700.3Z" transform="translate(-371.194 -643.662)" fill="#fffcf7" stroke="#000" stroke-miterlimit="10" stroke-width="2"></path></g></g></g></g><path id="Tracé_2165" data-name="Tracé 2165" d="M813.2,91.465l-3.2,4.4a10.191,10.191,0,0,1-2.342-.6,9.617,9.617,0,0,1-2.511-1.309l-.073-.331,15.517-20.093a25.738,25.738,0,0,1,3.223.915,20.192,20.192,0,0,1,3.033,1.342l-.756,25.366a7.981,7.981,0,0,1-3.346-.461c-1.728-.613-2.359-1.523-2.207-4.1l.149-2.464c-.453-.122-.995-.315-1.334-.434L814.54,91.98C814.133,91.835,813.625,91.655,813.2,91.465Zm2.756-3.791c.44.157.994.315,1.367.447l2.474.877c.339.12.8.322,1.208.467l.169-2.305c.143-2.124.395-5.2.612-7.641l-.2-.072c-1.012,1.777-2.753,4.211-3.922,5.9Z" transform="translate(-339.53 -9.897)" fill="none" stroke="#000" stroke-linecap="round" stroke-linejoin="round" stroke-width="1"></path><path id="Tracé_2166" data-name="Tracé 2166" d="M166.675,34.512c5.539-1.72,10.017-.663,11.575,4.358a6.346,6.346,0,0,1-1.852,6.56,7.771,7.771,0,0,1,6.973,5.437c1.731,5.578-1.407,9.26-7.5,11.152-3.068.953-6.4,1.9-9.851,2.883l-.366-.192-8.323-26.816.192-.365C160.683,36.459,163.806,35.4,166.675,34.512Zm.2,11.907,2.829-.878c2.71-.841,2.947-2.75,2.465-4.3s-1.734-2.913-4.4-2.084c-.717.223-1.873.581-2.881.851Zm1.41,4.542,2.412,7.77c1.263-.435,2.5-.819,3.334-1.078,3.268-1.014,3.357-3.4,2.837-5.075-.544-1.753-2.089-3.632-5.276-2.643Z" transform="translate(-96.667 -1.273)" fill="none" stroke="#000" stroke-linecap="round" stroke-linejoin="round" stroke-width="1"></path><path id="Tracé_2167" data-name="Tracé 2167" d="M713.638,796.94c-3.223.783-3.723,4.119-2.339,9.817,1.293,5.322,3.813,7.529,7.075,6.736,2.586-.629,4.32-2.479,5.744-4.134a7.183,7.183,0,0,1,3.674,3.2,15.778,15.778,0,0,1-9.23,6.45c-7.908,1.921-12-4.309-13.569-10.755C702.7,798.8,706.7,793.544,712.66,792.1c5.809-1.411,10.461,1.07,11.527,5.456.574,2.362-.464,3.646-2.6,4.165a8.637,8.637,0,0,1-2.368.219C718.537,798.806,716.937,796.139,713.638,796.94Z" transform="translate(-291.963 -372.737)" fill="none" stroke="#000" stroke-linecap="round" stroke-linejoin="round" stroke-width="1"></path><g id="Groupe_586" data-name="Groupe 586" transform="translate(144.395 469.333)"><path id="Tracé_2168" data-name="Tracé 2168" d="M295.257,868.434" transform="translate(-283.192 -844.305)" fill="none" stroke="#000" stroke-linecap="round" stroke-linejoin="round" stroke-width="1"></path><path id="Tracé_2169" data-name="Tracé 2169" d="M272.4,845.576" transform="translate(-272.398 -833.511)" fill="none" stroke="#000" stroke-linecap="round" stroke-linejoin="round" stroke-width="1"></path><path id="Tracé_2170" data-name="Tracé 2170" d="M295.257,822.717" transform="translate(-283.192 -822.717)" fill="none" stroke="#000" stroke-linecap="round" stroke-linejoin="round" stroke-width="1"></path><path id="Tracé_2171" data-name="Tracé 2171" d="M284.463,822.717A12.065,12.065,0,0,1,272.4,834.782a12.065,12.065,0,0,1,12.065,12.065,12.065,12.065,0,0,1,12.064-12.065A12.065,12.065,0,0,1,284.463,822.717Z" transform="translate(-272.398 -822.717)" fill="none" stroke="#000" stroke-linecap="round" stroke-linejoin="round" stroke-width="1"></path><path id="Tracé_2172" data-name="Tracé 2172" d="M318.115,845.576" transform="translate(-293.986 -833.511)" fill="none" stroke="#000" stroke-linecap="round" stroke-linejoin="round" stroke-width="1"></path></g><g id="Groupe_587" data-name="Groupe 587" transform="translate(184.367 111.02)"><path id="Tracé_2173" data-name="Tracé 2173" d="M343.7,224.026" transform="translate(-334.038 -204.703)" fill="none" stroke="#000" stroke-linecap="round" stroke-linejoin="round" stroke-width="1"></path><path id="Tracé_2174" data-name="Tracé 2174" d="M325.394,205.721" transform="translate(-325.394 -196.06)" fill="none" stroke="#000" stroke-linecap="round" stroke-linejoin="round" stroke-width="1"></path><path id="Tracé_2175" data-name="Tracé 2175" d="M343.7,187.416" transform="translate(-334.038 -187.416)" fill="none" stroke="#000" stroke-linecap="round" stroke-linejoin="round" stroke-width="1"></path><path id="Tracé_2176" data-name="Tracé 2176" d="M335.055,187.416a9.662,9.662,0,0,1-9.661,9.661,9.662,9.662,0,0,1,9.661,9.661,9.662,9.662,0,0,1,9.661-9.661A9.662,9.662,0,0,1,335.055,187.416Z" transform="translate(-325.394 -187.416)" fill="none" stroke="#000" stroke-linecap="round" stroke-linejoin="round" stroke-width="1"></path><path id="Tracé_2177" data-name="Tracé 2177" d="M362,205.721" transform="translate(-342.681 -196.06)" fill="none" stroke="#000" stroke-linecap="round" stroke-linejoin="round" stroke-width="1"></path></g><g id="Groupe_588" data-name="Groupe 588" transform="translate(468.766 459.752)"><path id="Tracé_2178" data-name="Tracé 2178" d="M825.7,865.806" transform="translate(-816.036 -846.483)" fill="none" stroke="#000" stroke-linecap="round" stroke-linejoin="round" stroke-width="1"></path><path id="Tracé_2179" data-name="Tracé 2179" d="M807.393,847.5" transform="translate(-807.393 -837.839)" fill="none" stroke="#000" stroke-linecap="round" stroke-linejoin="round" stroke-width="1"></path><path id="Tracé_2180" data-name="Tracé 2180" d="M825.7,829.2" transform="translate(-816.036 -829.195)" fill="none" stroke="#000" stroke-linecap="round" stroke-linejoin="round" stroke-width="1"></path><circle id="Ellipse_18" data-name="Ellipse 18" cx="9.661" cy="9.661" r="9.661" transform="translate(0 0)" fill="none" stroke="#000" stroke-linecap="round" stroke-linejoin="round" stroke-width="1"></circle><path id="Tracé_2181" data-name="Tracé 2181" d="M844,847.5" transform="translate(-824.68 -837.839)" fill="none" stroke="#000" stroke-linecap="round" stroke-linejoin="round" stroke-width="1"></path></g><g id="Groupe_589" data-name="Groupe 589" transform="translate(159.924 239.191)"><path id="Tracé_2182" data-name="Tracé 2182" d="M296.92,439.173A8.918,8.918,0,1,1,288,430.254,8.92,8.92,0,0,1,296.92,439.173Z" transform="translate(-279.084 -430.254)" fill="#fee77b" stroke="#000" stroke-miterlimit="10" stroke-width="2"></path></g><path id="Tracé_2183" data-name="Tracé 2183" d="M293.49,431.426a8.908,8.908,0,0,1-9.657,14.49,9.043,9.043,0,0,0,.918.829c1.514,1.189,3.42,3.661,5.493,3.661,5.108,0,3.26-2.228,4.6-3.04a8.915,8.915,0,0,0-1.358-15.94Z" transform="translate(-121.402 -191.617)" fill="#fee77b" stroke="#000" stroke-miterlimit="10" stroke-width="2"></path><path id="Tracé_2184" data-name="Tracé 2184" d="M445.542,394.543v-10l151.076-66.5v10Z" transform="translate(-197.761 -138.079)" fill="#fee77b" stroke="#000" stroke-miterlimit="10" stroke-width="2" opacity="0.6"></path></g></svg> 